<svg width="1200" height="630" xmlns="http://www.w3.org/2000/svg">
    <defs>
        <linearGradient id="bgGradient" x1="0%" y1="0%" x2="100%" y2="100%">
            <stop offset="0%" style="stop-color:#1e40af;stop-opacity:1" />
            <stop offset="50%" style="stop-color:#3b82f6;stop-opacity:1" />
            <stop offset="100%" style="stop-color:#60a5fa;stop-opacity:1" />
        </linearGradient>
        <filter id="shadow" x="-20%" y="-20%" width="140%" height="140%">
            <feDropShadow dx="0" dy="4" stdDeviation="8" flood-color="#000000" flood-opacity="0.25" />
        </filter>
    </defs>

    <!-- Background -->
    <rect width="100%" height="100%" fill="url(#bgGradient)" />

    <!-- Decorative elements -->
    <circle cx="100" cy="100" r="60" fill="#ffffff" opacity="0.1" />
    <circle cx="1100" cy="530" r="80" fill="#ffffff" opacity="0.1" />
    <path d="M0,200 Q300,150 600,200 T1200,200" stroke="#ffffff" stroke-width="2" opacity="0.2"
        fill="none" />

    <!-- Main content area -->
    <rect x="80" y="80" width="1040" height="470" rx="20" fill="#ffffff" filter="url(#shadow)" />

    <!-- Logo area -->
    <g transform="translate(150,180)">
        <!-- EchoNote Logo -->
        <circle cx="0" cy="0" r="50" fill="#3b82f6" />
        <path d="M-35,0 L35,0 M-25,15 L25,15 M-30,-15 L30,-15" stroke="#ffffff" stroke-width="4" />
        <circle cx="0" cy="0" r="8" fill="#ffffff" />
    </g>

    <!-- Title and description -->
    <text x="250" y="200" font-family="Arial, sans-serif" font-size="48" font-weight="bold"
        fill="#1f2937">EchoNote</text>
    <text x="250" y="240" font-family="Arial, sans-serif" font-size="24" fill="#6b7280">Smart Voice
        Transcription &amp; Calendar Management</text>

    <!-- Features list -->
    <g transform="translate(250,280)">
        <text x="0" y="30" font-family="Arial, sans-serif" font-size="18" fill="#374151">🔒 Complete
            privacy with local processing</text>
        <text x="0" y="60" font-family="Arial, sans-serif" font-size="18" fill="#374151">🎤 Advanced
            AI speech recognition</text>
        <text x="0" y="90" font-family="Arial, sans-serif" font-size="18" fill="#374151">📅
            Intelligent calendar integration</text>
        <text x="0" y="120" font-family="Arial, sans-serif" font-size="18" fill="#374151">⚡ Fast
            offline performance</text>
    </g>

    <!-- Call to action -->
    <rect x="250" y="450" width="200" height="50" rx="25" fill="#3b82f6" />
    <text x="350" y="480" font-family="Arial, sans-serif" font-size="18" font-weight="bold"
        fill="#ffffff" text-anchor="middle">Download Free</text>

    <!-- Mockup area -->
    <g transform="translate(700,150)">
        <!-- App window mockup -->
        <rect x="0" y="0" width="400" height="300" rx="10" fill="#f9fafb" stroke="#e5e7eb"
            stroke-width="2" />
        <rect x="0" y="0" width="400" height="40" rx="10" fill="#374151" />
        <circle cx="20" cy="20" r="6" fill="#ef4444" />
        <circle cx="40" cy="20" r="6" fill="#f59e0b" />
        <circle cx="60" cy="20" r="6" fill="#10b981" />

        <!-- App content -->
        <rect x="20" y="60" width="360" height="20" rx="10" fill="#e5e7eb" />
        <rect x="20" y="90" width="280" height="15" rx="7" fill="#d1d5db" />
        <rect x="20" y="115" width="320" height="15" rx="7" fill="#d1d5db" />
        <rect x="20" y="140" width="200" height="15" rx="7" fill="#d1d5db" />

        <!-- Waveform visualization -->
        <g transform="translate(50,180)">
            <rect x="0" y="20" width="4" height="40" fill="#3b82f6" />
            <rect x="10" y="10" width="4" height="60" fill="#3b82f6" />
            <rect x="20" y="25" width="4" height="30" fill="#3b82f6" />
            <rect x="30" y="5" width="4" height="70" fill="#3b82f6" />
            <rect x="40" y="15" width="4" height="50" fill="#3b82f6" />
            <rect x="50" y="30" width="4" height="20" fill="#3b82f6" />
            <rect x="60" y="20" width="4" height="40" fill="#60a5fa" />
            <rect x="70" y="10" width="4" height="60" fill="#60a5fa" />
            <rect x="80" y="25" width="4" height="30" fill="#60a5fa" />
        </g>
    </g>

    <!-- Footer -->
    <text x="600" y="600" font-family="Arial, sans-serif" font-size="14" fill="#6b7280"
        text-anchor="middle">Open Source • Privacy First • Cross Platform</text>
</svg>